<?xml version="1.0" standalone="no"?>
<!DOCTYPE svg PUBLIC "-//W3C//DTD SVG 20010904//EN"
 "http://www.w3.org/TR/2001/REC-SVG-20010904/DTD/svg10.dtd">
<svg version="1.0" xmlns="http://www.w3.org/2000/svg"
 width="284.000000pt" height="284.000000pt" viewBox="0 0 284.000000 284.000000"
 preserveAspectRatio="xMidYMid meet">
<metadata>
Created by potrace 1.14, written by Peter Selinger 2001-2017
</metadata>
<g transform="translate(0.000000,284.000000) scale(0.100000,-0.100000)"
fill="#000000" stroke="none">
<path d="M1240 2499 c-113 -16 -337 -104 -348 -137 -5 -16 30 -16 46 0 7 7 12
9 12 6 0 -4 15 -2 33 3 85 26 169 35 295 30 48 -2 39 -17 -23 -36 -30 -10 -55
-22 -55 -26 0 -5 -3 -8 -7 -7 -15 5 -111 -61 -161 -111 -28 -28 -70 -82 -92
-120 -34 -57 -53 -77 -108 -112 -60 -38 -143 -101 -180 -137 -12 -10 -11 -16
2 -35 9 -12 28 -37 41 -55 69 -96 91 -355 41 -477 -18 -42 -20 -59 -8 -51 5 3
20 -1 35 -9 14 -7 28 -11 31 -9 3 2 4 1 2 -2 -2 -3 7 -22 20 -41 35 -52 48
-107 49 -203 0 -110 -22 -158 -84 -181 l-42 -15 31 -40 c210 -267 518 -416
846 -409 58 1 110 7 116 13 13 13 2 19 -57 26 -116 15 -284 73 -385 132 -30
17 -59 32 -63 33 -4 0 -14 6 -21 13 -7 7 -34 30 -60 52 -77 64 -56 77 37 21
31 -19 57 -32 57 -28 0 3 8 -1 18 -9 22 -20 152 -69 163 -62 5 3 9 1 9 -4 0
-11 146 -45 160 -37 5 3 10 3 10 -2 0 -4 12 -9 28 -9 280 -15 433 14 532 102
38 34 91 116 93 143 1 12 6 21 11 21 6 0 5 5 -2 12 -9 9 -16 7 -31 -9 -11 -11
-17 -24 -14 -27 4 -3 1 -6 -6 -6 -7 0 -30 -13 -50 -28 -97 -75 -256 -112 -456
-108 -162 4 -262 28 -400 95 -157 77 -288 199 -347 323 -12 26 -26 48 -31 48
-4 0 -6 4 -3 9 4 5 2 20 -3 34 -15 39 -20 111 -21 298 -2 194 3 235 33 294 11
22 19 41 18 43 -1 1 19 21 45 43 80 69 117 82 304 104 30 4 66 8 80 10 176 22
465 37 725 39 l200 1 14 -29 c11 -25 15 -27 23 -13 7 13 5 72 -2 72 -1 0 -3 8
-5 18 -6 31 -49 86 -75 97 -14 6 -43 13 -65 16 -54 7 -385 7 -460 0 -33 -4
-80 -8 -105 -11 -44 -5 -194 -29 -235 -38 -77 -18 -162 -42 -231 -67 -59 -20
-85 -25 -93 -17 -27 27 264 132 507 182 19 4 60 11 169 30 41 7 218 21 301 24
12 1 22 4 22 9 0 13 -47 62 -54 55 -3 -3 -6 -1 -6 6 0 12 -68 80 -81 81 -3 0
-18 11 -33 24 -30 25 -186 106 -205 106 -6 0 -19 4 -29 10 -65 36 -297 57
-422 39z"/>
<path d="M2146 1823 c-1 -2 -50 -3 -108 -4 l-105 -1 4 -41 c11 -122 10 -349
-2 -422 -21 -129 -24 -141 -51 -227 -46 -145 -119 -288 -210 -410 -24 -32 -39
-60 -33 -63 12 -8 186 -8 219 0 14 4 36 7 50 9 14 1 35 7 46 14 12 6 24 9 26
6 7 -7 107 39 137 62 43 34 81 77 81 90 0 8 4 14 9 14 5 0 12 10 15 23 13 45
44 203 51 256 4 30 9 63 12 75 2 12 6 98 8 191 3 170 -9 288 -37 385 l-14 44
-48 1 c-26 0 -49 -1 -50 -2z"/>
<path d="M493 1767 c-3 -5 -1 -12 5 -16 20 -12 60 -106 71 -165 17 -90 8 -232
-17 -290 -12 -26 -20 -52 -17 -56 2 -4 24 -4 47 0 38 7 52 18 48 36 -1 4 3 10
9 13 6 4 12 16 14 26 1 11 6 26 10 32 5 7 8 50 9 95 1 77 -3 121 -17 192 -7
35 -42 104 -63 125 -17 17 -89 23 -99 8z"/>
<path d="M1335 1491 l-17 -69 -57 -12 c-84 -18 -104 -34 -55 -45 11 -2 34 -9
53 -14 19 -6 37 -8 41 -6 9 6 25 -33 41 -97 6 -27 15 -48 20 -48 5 0 16 26 24
58 9 31 18 62 20 69 2 7 17 15 32 19 82 18 104 26 101 36 -2 6 -11 13 -19 14
-78 17 -111 28 -114 37 -2 7 -11 38 -20 70 -8 31 -19 57 -24 57 -5 0 -16 -31
-26 -69z"/>
<path d="M685 1180 c-11 -5 -14 -9 -7 -9 7 -1 11 -5 7 -10 -3 -5 -1 -12 4 -15
38 -24 57 -236 25 -287 -3 -6 -1 -15 7 -19 41 -26 76 61 66 166 -10 108 -59
191 -102 174z"/>
</g>
</svg>
